<svg width="19" height="19" viewBox="0 0 19 19" fill="none" xmlns="http://www.w3.org/2000/svg">
<path d="M17.9531 15.2969C18.6641 15.9531 18.6641 17.1016 17.9531 17.7578C17.625 18.0859 17.1875 18.25 16.75 18.25C16.2578 18.25 15.8203 18.0859 15.4922 17.7578L9.75 12.0156L3.95312 17.7578C3.625 18.0859 3.1875 18.25 2.75 18.25C2.25781 18.25 1.82031 18.0859 1.49219 17.7578C0.78125 17.1016 0.78125 15.9531 1.49219 15.2969L7.23438 9.5L1.49219 3.75781C0.78125 3.10156 0.78125 1.95312 1.49219 1.29688C2.14844 0.585938 3.29688 0.585938 3.95312 1.29688L9.75 7.03906L15.4922 1.29688C16.1484 0.585938 17.2969 0.585938 17.9531 1.29688C18.6641 1.95312 18.6641 3.10156 17.9531 3.75781L12.2109 9.55469L17.9531 15.2969Z" fill="#F5F5F5"/>
</svg>
