<svg width="40" height="40" viewBox="0 0 40 40" fill="none" xmlns="http://www.w3.org/2000/svg">
<path d="M8 11.75C8 10.8203 8.76562 10 9.75 10H22.75C23.6797 10 24.5 10.8203 24.5 11.75C24.5 12.7344 23.6797 13.5 22.75 13.5H9.75C8.76562 13.5 8 12.7344 8 11.75ZM8 20.5C8 19.5703 8.76562 18.75 9.75 18.75H30.75C31.6797 18.75 32.5 19.5703 32.5 20.5C32.5 21.4844 31.6797 22.25 30.75 22.25H9.75C8.76562 22.25 8 21.4844 8 20.5ZM30.75 31H9.75C8.76562 31 8 30.2344 8 29.25C8 28.3203 8.76562 27.5 9.75 27.5H30.75C31.6797 27.5 32.5 28.3203 32.5 29.25C32.5 30.2344 31.6797 31 30.75 31Z" fill="#F5F5F5"/>
</svg>
