<svg width="40" height="40" viewBox="0 0 40 40" fill="none" xmlns="http://www.w3.org/2000/svg">
<g id="Layer_1" clip-path="url(#clip0_1497_410)">
<path id="Vector" d="M24.785 13.5325C24.795 14.085 24.5782 14.5186 24.1446 14.8449C23.6146 15.2438 23.0066 15.4359 22.3492 15.4506C21.7019 15.4652 21.3686 15.0957 21.4249 14.4522C21.4373 14.3087 21.4689 14.1652 21.5059 14.0255C21.698 13.2872 21.2583 12.6576 20.4991 12.6013C19.9574 12.5612 19.4513 12.7085 18.9675 12.9353C17.9707 13.4029 17.1783 14.1282 16.4793 14.9599C15.5218 16.0987 14.7611 17.3509 14.4293 18.8184C14.3398 19.215 14.3059 19.6478 14.3576 20.0498C14.5481 21.5443 15.879 21.9192 16.9168 21.8243C17.6528 21.7572 18.3364 21.3853 18.8757 20.8938C19.4166 20.4008 19.6959 19.5884 19.9358 18.9094C20.1526 18.2945 20.2853 17.6456 20.5739 17.06C20.7606 16.682 21.2174 16.584 21.6271 16.5662C22.117 16.5454 22.6231 16.5855 23.1007 16.692C23.6724 16.8201 23.8553 17.1596 23.5976 17.7313C23.5976 17.7313 20.9628 22.8327 19.4143 25.8726C18.9807 26.6303 18.4907 27.641 17.7446 28.3547C16.8095 29.2505 15.8258 29.117 15.0867 29.0877C14.7973 29.0761 14.3128 28.9889 14.4185 28.5815C14.4795 28.3462 15.0735 27.7228 15.4246 27.3092C15.7811 26.8888 16.2826 26.1079 16.5757 25.6419C17.632 23.9623 18.1134 22.6823 18.1134 22.6823C17.7076 22.9022 17.392 23.0912 17.0618 23.2486C16.0434 23.7347 14.9678 24.0225 13.8414 23.8674C12.259 23.649 11.1009 22.2919 11.0245 20.694C10.9604 19.3662 11.3478 18.1525 11.955 17.0029C13.3036 14.4514 15.2217 12.4717 17.8974 11.3112C19.4721 10.6284 21.1109 10.4317 22.7797 10.9671C23.998 11.3583 24.7642 12.3652 24.7858 13.5318L24.785 13.5325ZM28.8263 21.8644C27.9962 22.9384 26.9245 23.6205 25.5766 23.8195C25.0033 23.9044 24.5126 23.8627 24.0975 23.6946C22.9873 23.2694 22.7103 22.3204 22.6841 21.5574C22.6463 21.0744 22.7466 20.6454 22.8044 20.4456C22.8044 20.4456 22.8955 20.1354 23.0868 19.7604C23.4309 19.1293 24.2025 18.2752 24.194 18.2906C24.8297 17.6209 25.3999 17.1897 26.1861 16.925C26.9276 16.675 27.6929 16.6519 28.4583 16.8563C29.0015 17.0014 29.5014 17.3262 29.7252 17.8524C29.952 18.3855 29.9698 19.1633 29.8085 19.7628C29.8116 19.7751 29.4582 21.0173 28.8271 21.8637L28.8263 21.8644ZM27.4036 18.8006C27.3064 18.7312 27.176 18.6973 27.0256 18.6973C26.8589 18.6973 26.6676 18.7397 26.4731 18.8238C25.5666 19.218 24.954 20.3175 25.1075 21.2742C25.1453 21.5057 25.2387 21.68 25.3791 21.7773C25.5172 21.8729 25.6985 21.8999 25.9192 21.8552C26.8682 21.6654 27.6389 20.6485 27.6382 19.5876V19.5745C27.659 19.3129 27.6351 18.9657 27.4028 18.8006H27.4036Z" fill="white"/>
<g id="Group">
<path id="Vector_2" d="M30.7903 36.7078C30.5619 36.7078 30.3374 36.5983 30.2001 36.3946C29.9802 36.069 30.0658 35.6269 30.3914 35.407C31.3751 34.7427 32.3002 33.9797 33.1404 33.1394C33.9806 32.2992 34.7437 31.3742 35.408 30.3904C35.6279 30.0648 36.07 29.9792 36.3956 30.1991C36.7212 30.419 36.8068 30.8611 36.5869 31.1867C35.8717 32.246 35.0508 33.2413 34.1457 34.1455C33.2415 35.0498 32.2462 35.8715 31.1869 36.5867C31.065 36.6693 30.9261 36.7086 30.7895 36.7086L30.7903 36.7078Z" fill="white"/>
<path id="Vector_3" d="M20.0005 39.9997C18.6426 39.9997 17.2862 39.8631 15.9684 39.5939C14.683 39.3308 13.4192 38.9396 12.2118 38.4288C11.0267 37.9281 9.88325 37.3078 8.81389 36.5856C7.75456 35.8704 6.75926 35.0495 5.85501 34.1445C4.94999 33.2394 4.12907 32.2441 3.41384 31.1856C2.69168 30.1162 2.07136 28.9728 1.57062 27.7877C1.06063 26.5802 0.668686 25.3164 0.405589 24.031C0.136319 22.7132 -0.000244141 21.3561 -0.000244141 19.9989C-0.000244141 18.6418 0.136319 17.2846 0.405589 15.9668C0.667914 14.6822 1.05986 13.4184 1.57062 12.2102C2.07136 11.0243 2.69168 9.88167 3.41384 8.81231C3.63373 8.48671 4.07583 8.40107 4.40142 8.62096C4.72701 8.84085 4.81266 9.28295 4.59277 9.60854C3.92229 10.6015 3.34672 11.6632 2.88148 12.7642C2.40775 13.8852 2.04358 15.0587 1.79977 16.2515C1.54979 17.476 1.42249 18.7367 1.42249 19.9989C1.42249 21.2612 1.54902 22.5219 1.79977 23.7463C2.04358 24.9391 2.40775 26.1127 2.88148 27.2337C3.34672 28.3347 3.92229 29.3964 4.59277 30.3893C5.25707 31.3731 6.02012 32.2981 6.86034 33.1384C7.70055 33.9786 8.62563 34.7416 9.60935 35.4059C10.6023 36.0764 11.664 36.652 12.765 37.1172C13.886 37.5909 15.0588 37.9551 16.2524 38.1989C18.7012 38.6997 21.2983 38.6997 23.7472 38.1989C24.1314 38.121 24.5079 38.3687 24.5866 38.7537C24.6653 39.1387 24.4169 39.5144 24.0319 39.5931C22.7141 39.8624 21.3569 39.9989 19.9998 39.9989L20.0005 39.9997Z" fill="white"/>
<path id="Vector_4" d="M9.21217 4.71496C8.98379 4.71496 8.75927 4.6054 8.62194 4.40171C8.40205 4.07612 8.48769 3.63402 8.81328 3.41413C9.88264 2.69197 11.0253 2.07242 12.2112 1.57091C12.573 1.41814 12.9904 1.58711 13.1432 1.94897C13.296 2.31082 13.127 2.72823 12.7651 2.881C11.6641 3.34624 10.6025 3.92181 9.60952 4.59228C9.48761 4.67484 9.34873 4.71419 9.21217 4.71419V4.71496Z" fill="white"/>
<path id="Vector_5" d="M39.2893 20.7114C38.8966 20.7114 38.5779 20.3927 38.5779 20C38.5779 18.7378 38.4514 17.477 38.2007 16.2526C37.9568 15.059 37.5927 13.8863 37.1189 12.7652C36.6537 11.6642 36.0781 10.6026 35.4077 9.6096C34.7434 8.62588 33.9803 7.7008 33.1401 6.86058C32.2991 6.0196 31.3748 5.25654 30.3911 4.59301C29.3981 3.92254 28.3364 3.34619 27.2355 2.88172C26.1144 2.40799 24.9409 2.04382 23.7481 1.80002C22.5236 1.55003 21.2629 1.42273 20.0007 1.42273C19.608 1.42273 19.2893 1.10408 19.2893 0.711365C19.2893 0.318648 19.608 0 20.0007 0C21.3586 0 22.715 0.136564 24.0328 0.405833C25.3182 0.668158 26.582 1.0601 27.7894 1.57087C28.9745 2.0716 30.1179 2.69192 31.1873 3.41409C32.2459 4.12931 33.2412 4.95024 34.1462 5.85526C35.0504 6.75951 35.8721 7.7548 36.5874 8.81414C37.3095 9.8835 37.9298 11.0262 38.4306 12.212C38.9406 13.4195 39.3325 14.6833 39.5956 15.9687C39.8649 17.2865 40.0014 18.6436 40.0014 20.0008C40.0014 20.3935 39.6828 20.7121 39.2901 20.7121L39.2893 20.7114Z" fill="white"/>
<path id="Vector_6" d="M38.7027 25.4568C38.6448 25.4568 38.5862 25.4499 38.5276 25.4352C38.1464 25.3388 37.9157 24.9522 38.0122 24.5711C38.0847 24.2833 38.1518 23.9901 38.2104 23.6985C38.2884 23.3135 38.6641 23.0643 39.0491 23.1422C39.4341 23.2201 39.6833 23.5959 39.6054 23.9809C39.5421 24.2949 39.4696 24.6112 39.3917 24.9206C39.3099 25.2431 39.0206 25.4576 38.7027 25.4576V25.4568Z" fill="white"/>
<path id="Vector_7" d="M37.8208 28.1156C37.7298 28.1156 37.6372 28.0979 37.5477 28.0608C37.1851 27.9096 37.013 27.4937 37.1643 27.1311C37.2785 26.8564 37.388 26.5725 37.4906 26.2894C37.6233 25.9198 38.0315 25.7277 38.4011 25.8604C38.7706 25.9931 38.9627 26.4005 38.83 26.7708C38.7205 27.0763 38.6017 27.3811 38.479 27.6774C38.3656 27.9505 38.1009 28.1156 37.8216 28.1156H37.8208Z" fill="white"/>
<path id="Vector_8" d="M5.21749 24.7023C4.44517 24.7023 3.75387 24.1607 3.59339 23.3745C3.3681 22.2712 3.25391 21.1354 3.25391 19.9997C3.25391 18.864 3.3681 17.7283 3.59339 16.625C3.81328 15.5487 4.14196 14.4901 4.56939 13.4786C4.98911 12.4857 5.50836 11.5282 6.11325 10.6332C6.71197 9.74667 7.39942 8.9134 8.15631 8.15574C8.91319 7.39885 9.74723 6.71063 10.6337 6.11269C11.5287 5.5078 12.4862 4.98855 13.4792 4.56882C14.4907 4.14139 15.5493 3.81271 16.6263 3.59282C18.833 3.14224 21.1692 3.14224 23.3758 3.59282C24.4521 3.81271 25.5107 4.14139 26.5222 4.56882C27.5152 4.98855 28.4726 5.5078 29.3676 6.11269C30.2541 6.71141 31.0874 7.39885 31.8451 8.15574C32.6027 8.9134 33.2902 9.74667 33.8889 10.6332C34.402 11.3931 34.2021 12.4247 33.4422 12.937C32.6822 13.4501 31.6506 13.2503 31.1383 12.4903C30.6584 11.7789 30.106 11.11 29.4988 10.5028C28.8908 9.8948 28.2219 9.34315 27.5113 8.86325C26.7938 8.37872 26.0268 7.96208 25.2314 7.62646C24.4213 7.28389 23.5741 7.02157 22.7123 6.84566C20.9416 6.4838 19.0621 6.4838 17.2914 6.84566C16.4296 7.02157 15.5817 7.28466 14.7723 7.62646C13.9768 7.96285 13.2099 8.37872 12.4924 8.86325C11.781 9.34392 11.1121 9.89557 10.5049 10.5028C9.89691 11.1108 9.34526 11.7789 8.86536 12.4903C8.38083 13.2078 7.96419 13.9747 7.62857 14.7702C7.286 15.5803 7.02368 16.4275 6.84776 17.2893C6.66645 18.1743 6.57541 19.0862 6.57541 19.9997C6.57541 20.9132 6.66722 21.8252 6.84776 22.7102C7.03139 23.6082 6.45196 24.4847 5.55388 24.6684C5.44201 24.6915 5.33014 24.7023 5.2198 24.7023H5.21749Z" fill="white"/>
<path id="Vector_9" d="M11.5608 34.1728C11.2413 34.1728 10.9181 34.081 10.6334 33.8881C9.74686 33.2894 8.91359 32.602 8.15593 31.8451C7.39827 31.0874 6.71083 30.2541 6.11288 29.3676C5.5998 28.6077 5.79963 27.5761 6.5596 27.0638C7.31958 26.5507 8.35113 26.7506 8.86344 27.5105C9.34334 28.2219 9.89499 28.8901 10.503 29.498C11.1109 30.106 11.7791 30.6577 12.4905 31.1376C13.2504 31.6506 13.4503 32.6822 12.9372 33.4414C12.6162 33.9159 12.0931 34.1721 11.56 34.1721L11.5608 34.1728Z" fill="white"/>
<path id="Vector_10" d="M20.0014 36.7468C18.8657 36.7468 17.73 36.6326 16.6267 36.4066C15.7286 36.2229 15.1492 35.3465 15.3328 34.4484C15.5164 33.5503 16.3929 32.9709 17.291 33.1545C19.0617 33.5164 20.9404 33.5164 22.7118 33.1545C23.5737 32.9786 24.4216 32.7155 25.2309 32.3737C26.0264 32.0373 26.7933 31.6215 27.5109 31.1369C28.2222 30.657 28.8904 30.1054 29.4984 29.4974C30.1063 28.8894 30.658 28.2205 31.1379 27.5099C31.6224 26.7923 32.0391 26.0247 32.3747 25.23C32.7172 24.4198 32.9796 23.5727 33.1555 22.7109C33.3368 21.8251 33.4278 20.9132 33.4278 20.0004C33.4278 19.0877 33.336 18.1757 33.1555 17.29C32.9719 16.3919 33.5513 15.5154 34.4494 15.3318C35.3467 15.1482 36.2239 15.7276 36.4076 16.6257C36.6328 17.729 36.7478 18.8647 36.7478 20.0004C36.7478 21.1361 36.6336 22.2719 36.4076 23.3752C36.1877 24.4515 35.859 25.51 35.4315 26.5223C35.0118 27.5153 34.4926 28.4728 33.8885 29.3678C33.2897 30.2543 32.6023 31.0875 31.8454 31.8452C31.0877 32.6029 30.2545 33.2903 29.368 33.889C28.4722 34.4939 27.5155 35.0132 26.5225 35.4321C25.511 35.8595 24.4525 36.1882 23.3761 36.4081C22.2721 36.6334 21.1371 36.7484 20.0014 36.7484V36.7468Z" fill="white"/>
</g>
</g>
<defs>
<clipPath id="clip0_1497_410">
<rect width="40" height="40" fill="white"/>
</clipPath>
</defs>
</svg>
